<mxfile host="app.diagrams.net" agent="Mozilla/5.0 (Windows NT 10.0; Win64; x64) AppleWebKit/537.36 (KHTML, like Gecko) Chrome/132.0.0.0 Safari/537.36" version="26.0.13">
  <diagram name="Page-1" id="e7e014a7-5840-1c2e-5031-d8a46d1fe8dd">
    <mxGraphModel dx="1919" dy="373" grid="1" gridSize="10" guides="1" tooltips="1" connect="1" arrows="1" fold="1" page="1" pageScale="1" pageWidth="1169" pageHeight="826" background="none" math="0" shadow="0">
      <root>
        <mxCell id="0" />
        <mxCell id="1" parent="0" />
        <mxCell id="2" value="SOC" style="swimlane;whiteSpace=wrap" parent="1" vertex="1">
          <mxGeometry x="-10" y="128" width="700" height="570" as="geometry" />
        </mxCell>
        <mxCell id="5" value="" style="ellipse;shape=startState;fillColor=#000000;strokeColor=#ff0000;" parent="2" vertex="1">
          <mxGeometry x="100" y="40" width="30" height="30" as="geometry" />
        </mxCell>
        <mxCell id="6" value="" style="edgeStyle=elbowEdgeStyle;elbow=horizontal;verticalAlign=bottom;endArrow=open;endSize=8;strokeColor=#FF0000;endFill=1;rounded=0" parent="2" source="5" edge="1">
          <mxGeometry x="100" y="40" as="geometry">
            <mxPoint x="115.5" y="110" as="targetPoint" />
          </mxGeometry>
        </mxCell>
        <mxCell id="fPYJaFZdzipTab1vAfiD-103" style="edgeStyle=orthogonalEdgeStyle;rounded=0;orthogonalLoop=1;jettySize=auto;html=1;entryX=0;entryY=0.75;entryDx=0;entryDy=0;" edge="1" parent="2" source="fPYJaFZdzipTab1vAfiD-42" target="fPYJaFZdzipTab1vAfiD-46">
          <mxGeometry relative="1" as="geometry" />
        </mxCell>
        <mxCell id="fPYJaFZdzipTab1vAfiD-42" value="Evaluar incidencias recibidas&lt;div&gt;&lt;br&gt;&lt;/div&gt;" style="html=1;align=center;verticalAlign=top;rounded=1;absoluteArcSize=1;arcSize=10;dashed=0;whiteSpace=wrap;" vertex="1" parent="2">
          <mxGeometry x="45.5" y="112" width="140" height="40" as="geometry" />
        </mxCell>
        <mxCell id="fPYJaFZdzipTab1vAfiD-46" value="Listado de incidencias" style="html=1;align=center;verticalAlign=middle;rounded=0;absoluteArcSize=1;arcSize=10;dashed=0;whiteSpace=wrap;" vertex="1" parent="2">
          <mxGeometry x="183.25" y="237" width="114.5" height="48" as="geometry" />
        </mxCell>
        <mxCell id="fPYJaFZdzipTab1vAfiD-102" style="edgeStyle=orthogonalEdgeStyle;rounded=0;orthogonalLoop=1;jettySize=auto;html=1;entryX=0.5;entryY=0;entryDx=0;entryDy=0;" edge="1" parent="2" source="fPYJaFZdzipTab1vAfiD-73" target="fPYJaFZdzipTab1vAfiD-75">
          <mxGeometry relative="1" as="geometry" />
        </mxCell>
        <mxCell id="fPYJaFZdzipTab1vAfiD-73" value="Determinar posibilidad de mejora&lt;div&gt;&lt;br&gt;&lt;/div&gt;" style="html=1;align=center;verticalAlign=top;rounded=1;absoluteArcSize=1;arcSize=10;dashed=0;whiteSpace=wrap;" vertex="1" parent="2">
          <mxGeometry x="183.25" y="332" width="140" height="40" as="geometry" />
        </mxCell>
        <mxCell id="fPYJaFZdzipTab1vAfiD-84" style="edgeStyle=orthogonalEdgeStyle;rounded=0;orthogonalLoop=1;jettySize=auto;html=1;" edge="1" parent="2" source="fPYJaFZdzipTab1vAfiD-75">
          <mxGeometry relative="1" as="geometry">
            <mxPoint x="525" y="152" as="targetPoint" />
          </mxGeometry>
        </mxCell>
        <mxCell id="fPYJaFZdzipTab1vAfiD-75" value="" style="rhombus;" vertex="1" parent="2">
          <mxGeometry x="238.25" y="412" width="30" height="30" as="geometry" />
        </mxCell>
        <mxCell id="fPYJaFZdzipTab1vAfiD-83" style="edgeStyle=orthogonalEdgeStyle;rounded=0;orthogonalLoop=1;jettySize=auto;html=1;" edge="1" parent="2">
          <mxGeometry relative="1" as="geometry">
            <mxPoint x="710" y="152" as="targetPoint" />
            <mxPoint x="520" y="152" as="sourcePoint" />
          </mxGeometry>
        </mxCell>
        <mxCell id="fPYJaFZdzipTab1vAfiD-85" value="&lt;font style=&quot;font-size: 6px;&quot;&gt;Dar formación a empleados&lt;/font&gt;" style="text;html=1;align=center;verticalAlign=middle;resizable=0;points=[];autosize=1;strokeColor=none;fillColor=none;" vertex="1" parent="2">
          <mxGeometry x="268.25" y="402" width="100" height="30" as="geometry" />
        </mxCell>
        <mxCell id="fPYJaFZdzipTab1vAfiD-105" value="Listado de empleados" style="html=1;align=center;verticalAlign=middle;rounded=0;absoluteArcSize=1;arcSize=10;dashed=0;whiteSpace=wrap;" vertex="1" parent="2">
          <mxGeometry x="185.5" y="172" width="110" height="38" as="geometry" />
        </mxCell>
        <mxCell id="fPYJaFZdzipTab1vAfiD-108" value="" style="html=1;verticalAlign=bottom;labelBackgroundColor=none;endArrow=block;endFill=1;endSize=6;align=left;rounded=0;" edge="1" parent="2">
          <mxGeometry x="-1" relative="1" as="geometry">
            <mxPoint x="115.5" y="192" as="sourcePoint" />
            <mxPoint x="185.5" y="192" as="targetPoint" />
          </mxGeometry>
        </mxCell>
        <mxCell id="fPYJaFZdzipTab1vAfiD-109" style="edgeStyle=orthogonalEdgeStyle;rounded=0;orthogonalLoop=1;jettySize=auto;html=1;entryX=0.407;entryY=0.055;entryDx=0;entryDy=0;entryPerimeter=0;" edge="1" parent="2" source="fPYJaFZdzipTab1vAfiD-46" target="fPYJaFZdzipTab1vAfiD-73">
          <mxGeometry relative="1" as="geometry" />
        </mxCell>
        <mxCell id="4" value="Departamento de Desarrollo" style="swimlane;whiteSpace=wrap" parent="1" vertex="1">
          <mxGeometry x="-290" y="128" width="280" height="570" as="geometry" />
        </mxCell>
        <mxCell id="fPYJaFZdzipTab1vAfiD-113" value="análisis de automatización" style="html=1;align=center;verticalAlign=top;rounded=1;absoluteArcSize=1;arcSize=10;dashed=0;whiteSpace=wrap;" vertex="1" parent="4">
          <mxGeometry x="70" y="162" width="140" height="40" as="geometry" />
        </mxCell>
        <mxCell id="3" value="Recursos Humanos" style="swimlane;whiteSpace=wrap" parent="1" vertex="1">
          <mxGeometry x="690" y="128" width="280" height="570" as="geometry" />
        </mxCell>
        <mxCell id="fPYJaFZdzipTab1vAfiD-88" style="edgeStyle=orthogonalEdgeStyle;rounded=0;orthogonalLoop=1;jettySize=auto;html=1;" edge="1" parent="3" source="fPYJaFZdzipTab1vAfiD-86">
          <mxGeometry relative="1" as="geometry">
            <mxPoint x="70" y="222" as="targetPoint" />
          </mxGeometry>
        </mxCell>
        <mxCell id="fPYJaFZdzipTab1vAfiD-86" value="Listado de empleados actualizado" style="html=1;align=center;verticalAlign=middle;rounded=0;absoluteArcSize=1;arcSize=10;dashed=0;whiteSpace=wrap;" vertex="1" parent="3">
          <mxGeometry x="10" y="132" width="120" height="48" as="geometry" />
        </mxCell>
        <mxCell id="fPYJaFZdzipTab1vAfiD-90" style="edgeStyle=orthogonalEdgeStyle;rounded=0;orthogonalLoop=1;jettySize=auto;html=1;" edge="1" parent="3" source="fPYJaFZdzipTab1vAfiD-89">
          <mxGeometry relative="1" as="geometry">
            <mxPoint x="72.50000000000045" y="322" as="targetPoint" />
          </mxGeometry>
        </mxCell>
        <mxCell id="fPYJaFZdzipTab1vAfiD-89" value="Recabar datos de los empleados&lt;div&gt;&lt;br&gt;&lt;/div&gt;" style="html=1;align=center;verticalAlign=top;rounded=1;absoluteArcSize=1;arcSize=10;dashed=0;whiteSpace=wrap;" vertex="1" parent="3">
          <mxGeometry x="15" y="222" width="115" height="48" as="geometry" />
        </mxCell>
        <mxCell id="fPYJaFZdzipTab1vAfiD-93" style="edgeStyle=orthogonalEdgeStyle;rounded=0;orthogonalLoop=1;jettySize=auto;html=1;" edge="1" parent="3" source="fPYJaFZdzipTab1vAfiD-92">
          <mxGeometry relative="1" as="geometry">
            <mxPoint x="72.5" y="422" as="targetPoint" />
          </mxGeometry>
        </mxCell>
        <mxCell id="fPYJaFZdzipTab1vAfiD-92" value="Consultar catálogo de formación" style="html=1;align=center;verticalAlign=top;rounded=1;absoluteArcSize=1;arcSize=10;dashed=0;whiteSpace=wrap;" vertex="1" parent="3">
          <mxGeometry x="2.5" y="322" width="140" height="40" as="geometry" />
        </mxCell>
        <mxCell id="fPYJaFZdzipTab1vAfiD-94" value="Contratar cursos acordes" style="html=1;align=center;verticalAlign=top;rounded=1;absoluteArcSize=1;arcSize=10;dashed=0;whiteSpace=wrap;" vertex="1" parent="3">
          <mxGeometry x="10" y="422" width="140" height="40" as="geometry" />
        </mxCell>
        <mxCell id="fPYJaFZdzipTab1vAfiD-95" value="" style="shape=sumEllipse;perimeter=ellipsePerimeter;html=1;backgroundOutline=1;" vertex="1" parent="3">
          <mxGeometry x="190" y="512" width="30" height="30" as="geometry" />
        </mxCell>
        <mxCell id="fPYJaFZdzipTab1vAfiD-97" style="edgeStyle=orthogonalEdgeStyle;rounded=0;orthogonalLoop=1;jettySize=auto;html=1;entryX=0;entryY=0.5;entryDx=0;entryDy=0;" edge="1" parent="3" source="fPYJaFZdzipTab1vAfiD-96" target="fPYJaFZdzipTab1vAfiD-95">
          <mxGeometry relative="1" as="geometry" />
        </mxCell>
        <mxCell id="fPYJaFZdzipTab1vAfiD-96" value="Mandar mensaje informativo de inicio de formación" style="html=1;align=center;verticalAlign=top;rounded=1;absoluteArcSize=1;arcSize=10;dashed=0;whiteSpace=wrap;" vertex="1" parent="3">
          <mxGeometry x="15" y="502" width="145" height="48" as="geometry" />
        </mxCell>
        <mxCell id="fPYJaFZdzipTab1vAfiD-98" style="edgeStyle=orthogonalEdgeStyle;rounded=0;orthogonalLoop=1;jettySize=auto;html=1;entryX=0.444;entryY=0.059;entryDx=0;entryDy=0;entryPerimeter=0;" edge="1" parent="3" source="fPYJaFZdzipTab1vAfiD-94" target="fPYJaFZdzipTab1vAfiD-96">
          <mxGeometry relative="1" as="geometry" />
        </mxCell>
        <mxCell id="fPYJaFZdzipTab1vAfiD-114" style="edgeStyle=orthogonalEdgeStyle;rounded=0;orthogonalLoop=1;jettySize=auto;html=1;entryX=1;entryY=0.5;entryDx=0;entryDy=0;" edge="1" parent="1" source="fPYJaFZdzipTab1vAfiD-75" target="fPYJaFZdzipTab1vAfiD-113">
          <mxGeometry relative="1" as="geometry" />
        </mxCell>
      </root>
    </mxGraphModel>
  </diagram>
</mxfile>
